<svg width="312" height="312" viewBox="0 0 312 312" fill="none" xmlns="http://www.w3.org/2000/svg">
<g clip-path="url(#clip0_165_207)">
<rect width="312" height="312" rx="10" fill="white"/>
<g clip-path="url(#clip1_165_207)">
<path fill-rule="evenodd" clip-rule="evenodd" d="M154.786 69C185.269 69 209.981 94.4897 209.981 125.933C209.981 129.771 209.613 133.52 208.911 137.145C204.039 175.012 155.076 218.11 155.076 218.11C155.076 218.11 113.407 181.433 103.125 146.021C100.84 139.774 99.5906 133.004 99.5906 125.933C99.5906 94.4897 124.302 69 154.786 69Z" fill="#648DF4" fill-opacity="0.8"/>
<path d="M118.378 207.331C109.061 210.126 103.298 213.988 103.298 218.253C103.298 226.784 126.35 233.699 154.786 233.699C183.222 233.699 206.274 226.784 206.274 218.253C206.274 213.988 200.511 210.126 191.193 207.331" stroke="black" stroke-width="5" stroke-linecap="round" stroke-linejoin="round"/>
<path d="M189.239 129.468C189.239 109.807 173.814 93.868 154.786 93.868C135.758 93.868 120.332 109.807 120.332 129.468C120.332 149.13 135.758 165.069 154.786 165.069C173.814 165.069 189.239 149.13 189.239 129.468Z" fill="white"/>
<path opacity="0.5" d="M156 152C169.807 152 181 140.807 181 127C181 113.193 169.807 102 156 102C142.193 102 131 113.193 131 127C131 140.807 142.193 152 156 152Z" stroke="#1C274C" stroke-width="3.75"/>
<path d="M156 139.5V140.75V142" stroke="#1C274C" stroke-width="3.75" stroke-linecap="round"/>
<path d="M156 112V113.25V114.5" stroke="#1C274C" stroke-width="3.75" stroke-linecap="round"/>
<path d="M163.5 120.75C163.5 117.298 160.142 114.5 156 114.5C151.858 114.5 148.5 117.298 148.5 120.75C148.5 124.202 151.858 127 156 127C160.142 127 163.5 129.798 163.5 133.25C163.5 136.702 160.142 139.5 156 139.5C151.858 139.5 148.5 136.702 148.5 133.25" stroke="#1C274C" stroke-width="3.75" stroke-linecap="round"/>
<path d="M260.247 189.301C238.325 249.541 173.494 281.173 115.331 260.006C57.1679 238.84 27.8302 172.939 49.7526 112.699C71.675 52.4586 136.506 20.8273 194.669 41.9937" stroke="#292D32" stroke-width="5" stroke-linecap="round" stroke-linejoin="round"/>
<path d="M268.972 291.782L232.886 248.219Z" fill="#84A5F7"/>
<path d="M261.271 298.161C264.794 302.415 271.098 303.006 275.351 299.483C279.605 295.96 280.196 289.656 276.673 285.403L261.271 298.161ZM240.587 241.84L234.208 234.139L218.806 246.897L225.185 254.598L240.587 241.84ZM276.673 285.403L240.587 241.84L225.185 254.598L261.271 298.161L276.673 285.403Z" fill="#84A5F7"/>
<g opacity="0.9" clip-path="url(#clip2_165_207)">
<path d="M249.714 102.426C250.126 101.189 251.874 101.189 252.286 102.426L254.705 109.69C255.237 111.287 256.134 112.738 257.325 113.927C258.515 115.117 259.967 116.013 261.564 116.545L268.824 118.964C270.061 119.376 270.061 121.124 268.824 121.536L261.56 123.955C259.963 124.487 258.512 125.384 257.323 126.575C256.133 127.765 255.237 129.217 254.705 130.814L252.286 138.074C252.197 138.345 252.025 138.581 251.794 138.748C251.563 138.915 251.285 139.005 251 139.005C250.715 139.005 250.437 138.915 250.206 138.748C249.975 138.581 249.803 138.345 249.714 138.074L247.295 130.81C246.763 129.214 245.867 127.763 244.677 126.573C243.487 125.383 242.036 124.487 240.44 123.955L233.176 121.536C232.905 121.447 232.669 121.275 232.502 121.044C232.335 120.813 232.245 120.535 232.245 120.25C232.245 119.965 232.335 119.687 232.502 119.456C232.669 119.225 232.905 119.053 233.176 118.964L240.44 116.545C242.036 116.013 243.487 115.117 244.677 113.927C245.867 112.737 246.763 111.286 247.295 109.69L249.714 102.426ZM235.228 83.305C235.281 83.1426 235.385 83.0013 235.524 82.9011C235.662 82.801 235.829 82.747 236 82.747C236.171 82.747 236.338 82.801 236.476 82.9011C236.615 83.0013 236.719 83.1426 236.773 83.305L238.224 87.6625C238.873 89.605 240.395 91.1275 242.338 91.7763L246.695 93.2275C246.857 93.2813 246.999 93.3849 247.099 93.5235C247.199 93.6622 247.253 93.8289 247.253 94C247.253 94.1711 247.199 94.3378 247.099 94.4765C246.999 94.6151 246.857 94.7187 246.695 94.7725L242.338 96.2238C241.379 96.5429 240.509 97.0809 239.795 97.7949C239.081 98.5089 238.543 99.3795 238.224 100.338L236.773 104.695C236.719 104.857 236.615 104.999 236.476 105.099C236.338 105.199 236.171 105.253 236 105.253C235.829 105.253 235.662 105.199 235.524 105.099C235.385 104.999 235.281 104.857 235.228 104.695L233.776 100.338C233.457 99.3795 232.919 98.5089 232.205 97.7949C231.491 97.0809 230.621 96.5429 229.663 96.2238L225.305 94.7725C225.143 94.7187 225.001 94.6151 224.901 94.4765C224.801 94.3378 224.747 94.1711 224.747 94C224.747 93.8289 224.801 93.6622 224.901 93.5235C225.001 93.3849 225.143 93.2813 225.305 93.2275L229.663 91.7763C230.621 91.4571 231.491 90.9191 232.205 90.2051C232.919 89.4911 233.457 88.6205 233.776 87.6625L235.228 83.305ZM261.736 79.3713C261.773 79.2645 261.843 79.1719 261.935 79.1064C262.027 79.0408 262.137 79.0056 262.25 79.0056C262.363 79.0056 262.473 79.0408 262.565 79.1064C262.657 79.1719 262.727 79.2645 262.764 79.3713L263.731 82.2738C264.163 83.5713 265.179 84.5875 266.476 85.0188L269.379 85.9863C269.486 86.0233 269.578 86.0926 269.644 86.1847C269.709 86.2768 269.744 86.387 269.744 86.5C269.744 86.613 269.709 86.7232 269.644 86.8153C269.578 86.9074 269.486 86.9767 269.379 87.0138L266.476 87.9813C265.837 88.194 265.256 88.5528 264.779 89.0293C264.303 89.5058 263.944 90.0868 263.731 90.7263L262.764 93.6288C262.727 93.7355 262.657 93.8281 262.565 93.8936C262.473 93.9592 262.363 93.9944 262.25 93.9944C262.137 93.9944 262.027 93.9592 261.935 93.8936C261.843 93.8281 261.773 93.7355 261.736 93.6288L260.769 90.7263C260.556 90.0868 260.197 89.5058 259.721 89.0293C259.244 88.5528 258.663 88.194 258.024 87.9813L255.125 87.0138C255.018 86.9767 254.926 86.9074 254.86 86.8153C254.795 86.7232 254.759 86.613 254.759 86.5C254.759 86.387 254.795 86.2768 254.86 86.1847C254.926 86.0926 255.018 86.0233 255.125 85.9863L258.028 85.0188C259.325 84.5875 260.341 83.5713 260.773 82.2738L261.736 79.375V79.3713Z" fill="black"/>
</g>
</g>
</g>
<defs>
<clipPath id="clip0_165_207">
<rect width="312" height="312" rx="10" fill="white"/>
</clipPath>
<clipPath id="clip1_165_207">
<rect width="287" height="291" fill="white" transform="translate(12 30)"/>
</clipPath>
<clipPath id="clip2_165_207">
<rect width="60" height="60" fill="white" transform="translate(221 79)"/>
</clipPath>
</defs>
</svg>
